<svg xmlns="http://www.w3.org/2000/svg" id="Capa_1" data-name="Capa 1" viewBox="0 0 704.74 630.34"><defs><style>.cls-1{fill:#00add8;}.cls-2{fill:#fff;}</style></defs><g id="Capa_2" data-name="Capa 2"><g id="Capa_1-2" data-name="Capa 1-2"><rect class="cls-1" width="704.74" height="630.34"></rect><path class="cls-2" d="M484,130.13q-1,0-1.92,0H222.59a15.6,15.6,0,0,0-2.16.08,3,3,0,0,0-2.77,3.21,3.11,3.11,0,0,0,0,.32c.08.87.25,1.74.39,2.61l9.39,56.54q5.4,32.66,10.76,65.32t10.84,65.3q6.24,37.62,12.45,75.24c.8,4.84,1.1,5.09,6,5.09h48.72c2.87,0,2.95,0,3.21,2.94q1.6,18.29,3.14,36.57c.07.8,0,1.6.16,2.39.16,1.18-.35,1.62-1.48,1.55H303c-.76,0-1.53.06-2.44.11a5.07,5.07,0,0,0,1.71,2.2l49,49c2.11,2.11,1.6,2.24,3.79.05q24.54-24.52,49.05-49.06a8.28,8.28,0,0,0,1.85-2.15,5,5,0,0,0-2.49-.28H386c-2.14,0-2.2,0-2-2.11.28-3.91.63-7.81,1-11.71.78-9.09,1.58-18.17,2.33-27.25.16-1.89-.29-2.37,2.56-2.33h50.4c.8,0,1.6,0,2.4-.05a3,3,0,0,0,3-2.58,15.39,15.39,0,0,0,.29-1.65q1.31-8.41,2.58-16.83,3.28-21.22,6.58-42.43,3-19.2,5.93-38.4l6.51-41.95,6.06-39.1,5.94-38.4,5.52-35.79c.65-4.19,1.32-8.37,1.94-12.57C487.35,131.73,486.25,130.36,484,130.13ZM384.83,345a37.69,37.69,0,0,1-19.45,10.3,57.61,57.61,0,0,1-25-.14c-20.85-4.85-32.3-23.71-31.45-41.85a57.39,57.39,0,0,1,8.41-27.2c5-8.3,10.31-16.37,15.62-24.46q9.21-14,18.51-28a5.79,5.79,0,0,1,1.61-2c.74.16,1,.82,1.3,1.33,11.33,17.15,22.77,34.21,33.67,51.63a60.36,60.36,0,0,1,8.65,22.2C399.19,321.46,395.39,334.31,384.83,345ZM475,145.13c-2.19,13.17-4.31,26.35-6.45,39.52l-.18,1.19c-.14.94-.52,1.42-1.61,1-6.59-2.26-13.13-1.47-19.53.66-4.93,1.64-9.71,3.69-14.59,5.49a145.52,145.52,0,0,1-29.56,8,99.52,99.52,0,0,1-33.16-.84A155.45,155.45,0,0,1,340.18,191c-7.4-3-14.79-6.07-22.57-8.06a50.37,50.37,0,0,0-31.31,1.51,180.87,180.87,0,0,1-25.61,8,89.55,89.55,0,0,1-18.52,2.3c-2.52,0-2.53,0-3-2.31q-4.74-24.34-9.49-48.71a3.54,3.54,0,0,1-.06-1.77,7.55,7.55,0,0,1,2.76-.21H472.3C475.23,141.82,475.65,141,475,145.13Z"></path></g></g></svg>