<svg xmlns="http://www.w3.org/2000/svg" viewBox="0 0 704.74 630.34"><defs><style>.cls-1{fill:#fdb714;}.cls-2{fill:#fff;}</style></defs><g id="Capa_2" data-name="Capa 2"><g id="Capa_1-2" data-name="Capa 1"><rect class="cls-1" width="704.74" height="630.34"></rect><path class="cls-2" d="M490,241.16a7.7,7.7,0,0,0-11.34-7.31c-11,6.53-22.11,12.86-33.26,19.14a7.8,7.8,0,0,0-2.85,10.41,7.54,7.54,0,0,0,10.25,2.66c11.17-6.38,22.31-12.83,33.47-19.23A7,7,0,0,0,490,241.16Z"></path><path class="cls-2" d="M442.18,367.74a7.55,7.55,0,0,0,3.27,9.34c4.14,2.42,8.32,4.77,12.48,7.15,7,4,14.06,7.93,21,12.07,4.54,2.71,11.43-.62,11.24-5.4-.06-3.92-1.2-6.19-3.83-7.7q-16.68-9.49-33.31-19a7.21,7.21,0,0,0-2.43-1A7.68,7.68,0,0,0,442.18,367.74Z"></path><path class="cls-2" d="M411.26,405.13a7.47,7.47,0,0,0-9.73,10.53q9.59,16.75,19.23,33.47a6.76,6.76,0,0,0,5.79,3.65c6.41,0,10.07-5.94,7.28-10.89-6.44-11.41-13-22.74-19.57-34.1A6.56,6.56,0,0,0,411.26,405.13Z"></path><path class="cls-2" d="M414.29,222.05c3.25-5.6,6.45-11.23,9.66-16.85s6.51-11.2,9.62-16.88c2.71-5-1-10.94-7.06-10.9a7.21,7.21,0,0,0-6.18,3.89q-9.49,16.68-19.05,33.31a7.2,7.2,0,0,0-1,3.16,7.7,7.7,0,0,0,5.21,7.78A7.45,7.45,0,0,0,414.29,222.05Z"></path><path class="cls-2" d="M298.91,225.7a7.54,7.54,0,0,0,5.36-7.69,5.82,5.82,0,0,0-.92-3.12q-9.69-16.83-19.36-33.68a7,7,0,0,0-2.67-2.68,7.58,7.58,0,0,0-8.91,1,7.5,7.5,0,0,0-1.37,9.23q9.63,16.88,19.37,33.68A7.35,7.35,0,0,0,298.91,225.7Z"></path><path class="cls-2" d="M359.84,165.08a7.57,7.57,0,0,0-7.36-7.6,7.7,7.7,0,0,0-7.6,7.64c.2,4.15,0,8.31,0,12.47,0,8.64,0,17.27,0,25.9a7.25,7.25,0,0,0,1.64,4.88,7.43,7.43,0,0,0,8.2,2.41,7.31,7.31,0,0,0,5.1-7.08c0-6.48,0-12.95,0-19.43S359.87,171.48,359.84,165.08Z"></path><path class="cls-2" d="M352.76,406.59a90.64,90.64,0,1,0-91.05-90.52A90.57,90.57,0,0,0,352.76,406.59Zm-7.11-144.77a6.85,6.85,0,0,1,5.13-6.74,6.71,6.71,0,0,1,7.13,2.78A6.27,6.27,0,0,1,359,261.7c0,5,0,10.07,0,15.11,0,4.88-.19,9.77.06,14.63a6.73,6.73,0,1,1-13.44.13C345.66,281.65,345.6,271.73,345.65,261.82Zm-9.73,9.33a3.56,3.56,0,0,1,2.4-.38c0,5.32,0,10.59,0,15.87a1.91,1.91,0,0,1-1.24,1.82,27.17,27.17,0,0,0-6.63,5.09c-8.67,9.22-11.32,20-7.17,31.91s13,18.84,25.51,20.46a30.71,30.71,0,0,0,34.41-31.33c-.34-11.21-5.48-19.86-15-25.77a3.42,3.42,0,0,1-1.95-3.39c.12-4.4,0-8.8,0-13.2,0-1.88.11-2,1.91-1.3a46.38,46.38,0,0,1,25.38,21.59c15.81,28.54-1.76,64.36-33.94,69.29a47.09,47.09,0,0,1-23.71-90.66Z"></path><path class="cls-2" d="M502.51,307.7c-12.87,0-25.74,0-38.61,0a7.27,7.27,0,0,0-3,.61,7.72,7.72,0,0,0-4.39,8.27,7.47,7.47,0,0,0,7.32,6.05c6.48,0,12.95,0,19.43,0s12.79,0,19.19,0a7.05,7.05,0,0,0,3.89-.95,7.63,7.63,0,0,0,3.53-8.23A7.42,7.42,0,0,0,502.51,307.7Z"></path><path class="cls-2" d="M352.32,472.86a7.47,7.47,0,0,0,7.52-7.4c0-12.87,0-25.74,0-38.62,0-.32,0-.64,0-1a7.62,7.62,0,0,0-8.93-6.55c-2.9.6-6.1,3.7-6,7.39.15,6.39,0,12.79,0,19.19s.11,13.11,0,19.66C344.81,469.25,348.55,472.92,352.32,472.86Z"></path><path class="cls-2" d="M259.54,253.43q-17-9.74-33.93-19.41a7.48,7.48,0,0,0-7.39,13c1.64,1,3.32,1.91,5,2.86,9.5,5.44,19.08,10.76,28.48,16.38,4.37,2.61,11.5-.2,11.36-6.43A7,7,0,0,0,259.54,253.43Z"></path><path class="cls-2" d="M198.71,308.55a7.65,7.65,0,0,0-3.83,8.33,7.48,7.48,0,0,0,7.33,5.73c6.48,0,13,0,19.43,0s12.8,0,19.19,0a7.45,7.45,0,1,0,.18-14.9c-13,0-25.91,0-38.86,0A6.84,6.84,0,0,0,198.71,308.55Z"></path><path class="cls-2" d="M252,364.23c-11.19,6.52-22.45,12.91-33.65,19.39a7.46,7.46,0,0,0,4.13,13.89,6.17,6.17,0,0,0,3.48-1c11.15-6.43,22.32-12.82,33.45-19.27a7.54,7.54,0,0,0,2.82-10.2A7.77,7.77,0,0,0,252,364.23Z"></path><path class="cls-2" d="M290.45,408.31q-9.61,16.74-19.17,33.51A7.57,7.57,0,0,0,274,452.05a7.48,7.48,0,0,0,10.21-2.76c6.43-11.15,12.79-22.33,19.2-33.49a8.63,8.63,0,0,0,1.08-3.57,7.72,7.72,0,0,0-5.42-7.49A7.6,7.6,0,0,0,290.45,408.31Z"></path></g></g></svg>