<svg xmlns="http://www.w3.org/2000/svg" viewBox="0 0 704.74 630.34"><defs><style>.cls-1{fill:#f36e25;}.cls-2{fill:#fff;}</style></defs><g id="Capa_2" data-name="Capa 2"><g id="Capa_1-2" data-name="Capa 1"><rect class="cls-1" width="704.74" height="630.34"></rect><path class="cls-2" d="M525.66,338.42a6.94,6.94,0,0,0-3.91-6.75c-23-13.19-46-26.51-69-39.72a4,4,0,0,1-2.36-4.1c.08-26.56,0-53.12.1-79.68a6.76,6.76,0,0,0-3.76-6.59q-36.29-20.84-72.48-41.86a7,7,0,0,0-7.8,0q-36.18,21-72.49,41.86a6.92,6.92,0,0,0-3.85,6.78c.07,26.64,0,53.28.08,79.92a3.48,3.48,0,0,1-2.05,3.54c-9.67,5.49-19.27,11.08-28.89,16.64l-40.72,23.5a6.41,6.41,0,0,0-3.07,2.9,8.71,8.71,0,0,0-.42,3.54v41.77c0,14,.07,28-.05,42a6.89,6.89,0,0,0,3.94,6.72Q255,449.55,291,470.45c2.91,1.69,5.29,1.76,8.22.06,22.94-13.36,46-26.57,68.92-39.89a3.66,3.66,0,0,1,4.29,0c23.09,13.42,46.24,26.72,69.33,40.13a6.61,6.61,0,0,0,7.38,0q36.3-21.06,72.7-42a6.76,6.76,0,0,0,3.81-6.56Q525.56,380.31,525.66,338.42ZM290.14,456.3c0,.54-.07,1.08-.1,1.67a4.65,4.65,0,0,1-2.23-1Q257.48,439.5,227.14,422a3.7,3.7,0,0,1-2.16-3.75q.09-34.91,0-69.82v-2.25c.83-.52,1.25,0,1.69.28q30.94,17.85,61.89,35.7a2.79,2.79,0,0,1,1.56,2.84Q290.12,420.68,290.14,456.3Zm10.14-240.89,60,34.65-60,34.66Zm64.92,43.38v69.33l-60-34.66Zm-25,176.45q-9.84,5.72-19.72,11.4l-20.19,11.64V389l60,34.62C353.42,427.68,346.78,431.42,340.18,435.24Zm25.05-20.31-60.07-34.69,60.07-34.69ZM439.9,215.65c.65,1.87.93,60.64.35,69l-59.94-34.61Zm-64.41,43.19L435,293.21c-1.21,1.31-56.48,33.37-59.33,34.46C375.16,326,374.93,264,375.49,258.84Zm71.62,114.69a2.63,2.63,0,0,1-3,.18q-31.32-18.18-62.69-36.26c-.2-.12-.38-.28-.68-.5a4.94,4.94,0,0,1,2.07-1.52q30.3-17.52,60.61-35.05a3.5,3.5,0,0,1,4.09,0q30.38,17.64,60.82,35.16a5.11,5.11,0,0,1,1.8,1.24c-.12.73-.82.85-1.32,1.14Q477.95,355.71,447.11,373.53ZM513.58,422q-30.17,17.31-60.26,34.73a6.07,6.07,0,0,1-2.57,1.22c-.54-.65-.31-1.4-.31-2.07q0-35.28,0-70.56a3,3,0,0,1,1.58-3.09q30.88-17.73,61.71-35.58c.47-.28,1-.5,1.62-.82a4.18,4.18,0,0,1,.31,2.33c0,23.44,0,46.88,0,70.32A3.52,3.52,0,0,1,513.58,422Z"></path></g></g></svg>